<svg width="74" height="74" viewBox="0 0 74 74" fill="none" xmlns="http://www.w3.org/2000/svg">
<g clip-path="url(#clip0_86_54)">
<path d="M53.0626 41.625C52.5423 36.9359 50.4442 32.5627 47.1124 29.2224C43.7805 25.8821 39.4127 23.773 34.7249 23.2408C30.0371 22.7086 25.3076 23.7849 21.3118 26.2932C17.3159 28.8016 14.2909 32.5931 12.7326 37.0462C9.16184 37.3385 5.84253 39.0007 3.4695 41.6848C1.09647 44.3689 -0.146315 47.867 0.00129423 51.4466C0.148904 55.0263 1.67546 58.4101 4.26142 60.8898C6.84739 63.3694 10.2923 64.7527 13.875 64.75H53.1875C56.2541 64.7334 59.1884 63.4993 61.3451 61.3193C63.5018 59.1392 64.7041 56.1916 64.6876 53.125C64.671 50.0585 63.4369 47.1241 61.2568 44.9674C59.0767 42.8107 56.1292 41.6084 53.0626 41.625V41.625Z" fill="#28838F"/>
<path d="M67.266 45.1954C66.1714 43.2688 64.6935 41.587 62.9236 40.2538C61.1537 38.9206 59.1293 37.9643 56.9754 37.4439C55.333 31.2262 51.3974 25.861 45.96 22.4271C40.5227 18.9932 33.9868 17.7454 27.6667 18.9347C29.4404 15.6686 32.1562 13.012 35.4607 11.3109C38.7651 9.6098 42.5052 8.94289 46.194 9.397C49.8827 9.85111 53.3494 11.4052 56.1426 13.857C58.9358 16.3088 60.9262 19.5447 61.8547 23.1434C64.5397 23.0063 67.1886 23.8092 69.3457 25.4139C71.5027 27.0186 73.0332 29.3248 73.6738 31.9359C74.3144 34.547 74.025 37.2997 72.8556 39.7205C71.6861 42.1413 69.7096 44.0789 67.266 45.2V45.1954Z" fill="#28838F"/>
</g>
<defs>
<clipPath id="clip0_86_54">
<rect width="74" height="74" fill="white"/>
</clipPath>
</defs>
</svg>
