<svg width="145" height="47" viewBox="0 0 145 47" fill="none" xmlns="http://www.w3.org/2000/svg">
<path d="M31.124 14.36V32H28.128V14.36H31.124ZM37.9501 32H35.0661V18.784H37.3341L37.7261 20.548C38.3794 19.9133 39.0608 19.428 39.7701 19.092C40.4981 18.7373 41.3194 18.56 42.2341 18.56C43.6341 18.56 44.7168 18.9427 45.4821 19.708C46.2474 20.4733 46.6301 21.5653 46.6301 22.984V32H43.7461V23.348C43.7461 22.5827 43.5501 21.976 43.1581 21.528C42.7661 21.08 42.1781 20.856 41.3941 20.856C40.7968 20.856 40.1994 21.0053 39.6021 21.304C39.0234 21.584 38.4728 21.9947 37.9501 22.536V32ZM57.9126 21.472C57.3152 21.192 56.7552 20.996 56.2326 20.884C55.7286 20.7533 55.2246 20.688 54.7206 20.688C53.9366 20.688 53.3392 20.8373 52.9286 21.136C52.5366 21.416 52.3406 21.7987 52.3406 22.284C52.3406 22.6573 52.4899 22.984 52.7886 23.264C53.0872 23.5253 53.7032 23.7867 54.6366 24.048L55.4766 24.3C56.6899 24.6733 57.6046 25.1587 58.2206 25.756C58.8552 26.3533 59.1726 27.156 59.1726 28.164C59.1726 29.396 58.7059 30.3947 57.7726 31.16C56.8392 31.9067 55.5606 32.28 53.9366 32.28C53.0592 32.28 52.2379 32.196 51.4726 32.028C50.7259 31.8787 50.0539 31.664 49.4566 31.384L50.1286 29.2C50.6699 29.4613 51.2486 29.676 51.8646 29.844C52.4806 30.012 53.1152 30.096 53.7686 30.096C54.5712 30.096 55.1966 29.956 55.6446 29.676C56.0926 29.396 56.3166 28.9667 56.3166 28.388C56.3166 27.8467 56.1112 27.464 55.7006 27.24C55.3086 26.9973 54.6926 26.7453 53.8526 26.484L52.9846 26.232C51.8086 25.84 50.9312 25.3453 50.3526 24.748C49.7926 24.1507 49.5126 23.3667 49.5126 22.396C49.5126 21.8173 49.6339 21.2947 49.8766 20.828C50.1192 20.3613 50.4552 19.96 50.8846 19.624C51.3139 19.288 51.8272 19.0267 52.4246 18.84C53.0406 18.6533 53.7126 18.56 54.4406 18.56C55.1312 18.56 55.8312 18.6253 56.5406 18.756C57.2686 18.8867 57.9406 19.092 58.5566 19.372L57.9126 21.472ZM74.321 25.252C74.321 26.3533 74.1437 27.3427 73.789 28.22C73.453 29.0973 72.9863 29.8347 72.389 30.432C71.7917 31.0293 71.0917 31.4867 70.289 31.804C69.4863 32.1213 68.6183 32.28 67.685 32.28C66.7517 32.28 65.8837 32.1307 65.081 31.832C64.297 31.5333 63.6063 31.104 63.009 30.544C62.4303 29.9653 61.973 29.256 61.637 28.416C61.3197 27.576 61.161 26.6147 61.161 25.532C61.161 24.412 61.329 23.4227 61.665 22.564C62.0197 21.7053 62.4957 20.9773 63.093 20.38C63.6903 19.7827 64.3903 19.3347 65.193 19.036C65.9957 18.7187 66.8637 18.56 67.797 18.56C68.7303 18.56 69.589 18.7093 70.373 19.008C71.1757 19.288 71.8663 19.708 72.445 20.268C73.0423 20.828 73.4997 21.528 73.817 22.368C74.153 23.208 74.321 24.1693 74.321 25.252ZM71.325 25.392C71.325 24.552 71.2223 23.8427 71.017 23.264C70.8117 22.6667 70.541 22.1813 70.205 21.808C69.869 21.4347 69.4863 21.164 69.057 20.996C68.6277 20.828 68.1797 20.744 67.713 20.744C67.265 20.744 66.8263 20.8187 66.397 20.968C65.9677 21.1173 65.585 21.3693 65.249 21.724C64.913 22.0787 64.6423 22.5547 64.437 23.152C64.2503 23.7493 64.157 24.496 64.157 25.392C64.157 26.2133 64.2597 26.9227 64.465 27.52C64.6703 28.1173 64.941 28.612 65.277 29.004C65.613 29.3773 65.9957 29.6573 66.425 29.844C66.873 30.012 67.321 30.096 67.769 30.096C68.217 30.096 68.6557 30.0213 69.085 29.872C69.5143 29.7227 69.897 29.4707 70.233 29.116C70.569 28.7427 70.8303 28.2573 71.017 27.66C71.2223 27.044 71.325 26.288 71.325 25.392ZM77.3148 32V12.092H80.1428V32H77.3148ZM84.0974 19.96C84.956 19.4933 85.7774 19.148 86.5614 18.924C87.364 18.6813 88.2507 18.56 89.2214 18.56C89.968 18.56 90.6494 18.644 91.2654 18.812C91.9 18.98 92.4414 19.2507 92.8894 19.624C93.3374 19.9973 93.6827 20.5013 93.9254 21.136C94.1867 21.752 94.3174 22.508 94.3174 23.404V32H91.9934L91.6854 30.572H91.6014C91.0787 31.1693 90.472 31.608 89.7814 31.888C89.0907 32.1493 88.3254 32.28 87.4854 32.28C86.16 32.28 85.0867 31.9253 84.2654 31.216C83.4627 30.5067 83.0614 29.564 83.0614 28.388C83.0614 27.66 83.2107 27.0347 83.5094 26.512C83.808 25.9707 84.228 25.5227 84.7694 25.168C85.3107 24.8133 85.9547 24.552 86.7014 24.384C87.448 24.1973 88.2694 24.104 89.1654 24.104H91.4054V23.096C91.4054 22.256 91.1814 21.6773 90.7334 21.36C90.2854 21.024 89.6694 20.856 88.8854 20.856C88.4 20.856 87.8494 20.94 87.2334 21.108C86.636 21.2573 85.9454 21.5467 85.1614 21.976L84.0974 19.96ZM91.4334 26.008L89.6694 26.036C88.344 26.0733 87.4107 26.3067 86.8694 26.736C86.328 27.1653 86.0574 27.6693 86.0574 28.248C86.0574 28.6213 86.1134 28.9293 86.2254 29.172C86.356 29.4147 86.524 29.6107 86.7294 29.76C86.9347 29.9093 87.168 30.0213 87.4294 30.096C87.7094 30.152 87.9894 30.18 88.2694 30.18C88.848 30.18 89.4174 30.04 89.9774 29.76C90.556 29.4613 91.0414 29.0413 91.4334 28.5V26.008ZM105.346 20.912H101.594V28.052C101.594 28.7053 101.743 29.144 102.042 29.368C102.359 29.592 102.779 29.704 103.302 29.704C103.675 29.704 104.067 29.6667 104.478 29.592C104.907 29.4987 105.281 29.396 105.598 29.284L106.046 31.412C105.673 31.5613 105.187 31.7013 104.59 31.832C104.011 31.944 103.395 32 102.742 32C101.323 32 100.297 31.7107 99.6621 31.132C99.0461 30.5347 98.7381 29.6573 98.7381 28.5V20.912H96.7221V18.784H98.7381V14.612H101.594V18.784H105.346V20.912ZM108.737 32V18.784H111.621V32H108.737ZM110.193 15.508C109.689 15.508 109.288 15.3587 108.989 15.06C108.691 14.7427 108.541 14.3507 108.541 13.884C108.541 13.4173 108.691 13.0347 108.989 12.736C109.288 12.4187 109.689 12.26 110.193 12.26C110.679 12.26 111.071 12.4187 111.369 12.736C111.687 13.0347 111.845 13.4173 111.845 13.884C111.845 14.3693 111.687 14.7613 111.369 15.06C111.071 15.3587 110.679 15.508 110.193 15.508ZM127.969 25.252C127.969 26.3533 127.792 27.3427 127.437 28.22C127.101 29.0973 126.635 29.8347 126.037 30.432C125.44 31.0293 124.74 31.4867 123.937 31.804C123.135 32.1213 122.267 32.28 121.333 32.28C120.4 32.28 119.532 32.1307 118.729 31.832C117.945 31.5333 117.255 31.104 116.657 30.544C116.079 29.9653 115.621 29.256 115.285 28.416C114.968 27.576 114.809 26.6147 114.809 25.532C114.809 24.412 114.977 23.4227 115.313 22.564C115.668 21.7053 116.144 20.9773 116.741 20.38C117.339 19.7827 118.039 19.3347 118.841 19.036C119.644 18.7187 120.512 18.56 121.445 18.56C122.379 18.56 123.237 18.7093 124.021 19.008C124.824 19.288 125.515 19.708 126.093 20.268C126.691 20.828 127.148 21.528 127.465 22.368C127.801 23.208 127.969 24.1693 127.969 25.252ZM124.973 25.392C124.973 24.552 124.871 23.8427 124.665 23.264C124.46 22.6667 124.189 22.1813 123.853 21.808C123.517 21.4347 123.135 21.164 122.705 20.996C122.276 20.828 121.828 20.744 121.361 20.744C120.913 20.744 120.475 20.8187 120.045 20.968C119.616 21.1173 119.233 21.3693 118.897 21.724C118.561 22.0787 118.291 22.5547 118.085 23.152C117.899 23.7493 117.805 24.496 117.805 25.392C117.805 26.2133 117.908 26.9227 118.113 27.52C118.319 28.1173 118.589 28.612 118.925 29.004C119.261 29.3773 119.644 29.6573 120.073 29.844C120.521 30.012 120.969 30.096 121.417 30.096C121.865 30.096 122.304 30.0213 122.733 29.872C123.163 29.7227 123.545 29.4707 123.881 29.116C124.217 28.7427 124.479 28.2573 124.665 27.66C124.871 27.044 124.973 26.288 124.973 25.392ZM133.735 32H130.851V18.784H133.119L133.511 20.548C134.165 19.9133 134.846 19.428 135.555 19.092C136.283 18.7373 137.105 18.56 138.019 18.56C139.419 18.56 140.502 18.9427 141.267 19.708C142.033 20.4733 142.415 21.5653 142.415 22.984V32H139.531V23.348C139.531 22.5827 139.335 21.976 138.943 21.528C138.551 21.08 137.963 20.856 137.179 20.856C136.582 20.856 135.985 21.0053 135.387 21.304C134.809 21.584 134.258 21.9947 133.735 22.536V32Z" fill="#202632"/>
<path d="M16 30.25L16 16.75C16 16.3358 15.4777 16 14.8333 16L3.16667 16C2.52234 16 2 16.3358 2 16.75L2 30.25C2 30.6642 2.52233 31 3.16667 31L14.8333 31C15.4777 31 16 30.6642 16 30.25Z" stroke="#202632" stroke-width="2.5"/>
<path d="M2 26L16 26" stroke="#202632" stroke-width="2.5" stroke-linecap="round" stroke-linejoin="round"/>
<path d="M2 21L16 21" stroke="#202632" stroke-width="2.5" stroke-linecap="round" stroke-linejoin="round"/>
<path d="M9 30L9 17" stroke="#202632" stroke-width="2.5" stroke-linecap="round" stroke-linejoin="round"/>
</svg>
