<svg width="76" height="76" viewBox="0 0 76 76" fill="none" xmlns="http://www.w3.org/2000/svg">
<path d="M38 66.5C34.6222 66.5 31.4292 65.9458 28.4208 64.8375C25.4125 63.7292 22.6944 62.1986 20.2667 60.2458L14.0125 66.5L9.5 61.9875L15.7542 55.7333C13.8014 53.3056 12.2708 50.5738 11.1625 47.538C10.0542 44.5043 9.5 41.325 9.5 38C9.5 30.0833 12.2846 23.3542 17.8537 17.8125C23.4207 12.2708 30.1361 9.5 38 9.5H66.5V38C66.5 45.8639 63.7292 52.5804 58.1875 58.1495C52.6458 63.7165 45.9167 66.5 38 66.5ZM33.8042 53.4375L50.1917 38.7917C50.7194 38.3167 50.8778 37.7488 50.6667 37.088C50.4556 36.4293 49.9806 36.0472 49.2417 35.9417L36.4167 34.675L44.0958 24.1458C44.3069 23.8819 44.3988 23.6043 44.3713 23.313C44.346 23.0238 44.2278 22.7472 44.0167 22.4833C43.7528 22.2194 43.4498 22.0875 43.1078 22.0875C42.7637 22.0875 42.4597 22.2194 42.1958 22.4833L25.8875 37.1292C25.3597 37.6042 25.2014 38.171 25.4125 38.8297C25.6236 39.4904 26.0986 39.8736 26.8375 39.9792L39.6625 41.2458L31.9042 51.775C31.7458 52.0389 31.6667 52.3165 31.6667 52.6078C31.6667 52.8971 31.7986 53.1736 32.0625 53.4375C32.3264 53.7014 32.6167 53.8333 32.9333 53.8333C33.25 53.8333 33.5403 53.7014 33.8042 53.4375Z" fill="#003C65"/>
</svg>
